HIERARCHY
ROOT mixamorig:Hips
{
	OFFSET -0.000008 104.274872 1.554316
	CHANNELS 6 Xposition Yposition Zposition Xrotation Yrotation Zrotation
	JOINT mixamorig:Spine
	{
		OFFSET -0.000005 10.181595 0.131519
		CHANNELS 6 Xposition Yposition Zposition Xrotation Yrotation Zrotation
		JOINT mixamorig:Spine1
		{
			OFFSET -0.000000 9.893959 -1.470707
			CHANNELS 6 Xposition Yposition Zposition Xrotation Yrotation Zrotation
			JOINT mixamorig:Spine2
			{
				OFFSET -0.000000 9.220757 -1.370641
				CHANNELS 6 Xposition Yposition Zposition Xrotation Yrotation Zrotation
				JOINT mixamorig:Neck
				{
					OFFSET 0.000001 16.740417 -2.049036
					CHANNELS 6 Xposition Yposition Zposition Xrotation Yrotation Zrotation
					JOINT mixamorig:Head
					{
						OFFSET 0.000000 9.617874 1.685006
						CHANNELS 6 Xposition Yposition Zposition Xrotation Yrotation Zrotation
						JOINT mixamorig:HeadTop_End
						{
							OFFSET 0.000002 22.037354 7.501101
							CHANNELS 6 Xposition Yposition Zposition Xrotation Yrotation Zrotation
							End Site
							{
								OFFSET 0.000168 2310.654297 -282.823242
							}
						}
					}
				}
				JOINT mixamorig:RightShoulder
				{
					OFFSET -4.569970 11.014908 -2.160885
					CHANNELS 6 Xposition Yposition Zposition Xrotation Yrotation Zrotation
					JOINT mixamorig:RightArm
					{
						OFFSET -10.592851 -0.524811 -2.232101
						CHANNELS 6 Xposition Yposition Zposition Xrotation Yrotation Zrotation
						JOINT mixamorig:RightForeArm
						{
							OFFSET -27.841511 0.000031 -0.000004
							CHANNELS 6 Xposition Yposition Zposition Xrotation Yrotation Zrotation
							JOINT mixamorig:RightHand
							{
								OFFSET -28.328831 -0.000015 0.000015
								CHANNELS 6 Xposition Yposition Zposition Xrotation Yrotation Zrotation
								JOINT mixamorig:RightHandThumb1
								{
									OFFSET -2.464806 -1.573990 2.681852
									CHANNELS 6 Xposition Yposition Zposition Xrotation Yrotation Zrotation
									JOINT mixamorig:RightHandThumb2
									{
										OFFSET -3.215179 -1.872803 1.924282
										CHANNELS 6 Xposition Yposition Zposition Xrotation Yrotation Zrotation
										JOINT mixamorig:RightHandThumb3
										{
											OFFSET -2.654831 -1.527969 1.512609
											CHANNELS 6 Xposition Yposition Zposition Xrotation Yrotation Zrotation
											JOINT mixamorig:RightHandThumb4
											{
												OFFSET -2.018814 -1.152008 1.108052
												CHANNELS 6 Xposition Yposition Zposition Xrotation Yrotation Zrotation
												End Site
												{
													OFFSET -188.809540 -114.533607 132.431396
												}
											}
										}
									}
								}
								JOINT mixamorig:RightHandIndex1
								{
									OFFSET -9.108284 -0.517868 2.259835
									CHANNELS 6 Xposition Yposition Zposition Xrotation Yrotation Zrotation
									JOINT mixamorig:RightHandIndex2
									{
										OFFSET -3.699989 0.000000 0.001215
										CHANNELS 6 Xposition Yposition Zposition Xrotation Yrotation Zrotation
										JOINT mixamorig:RightHandIndex3
										{
											OFFSET -2.850006 0.000031 -0.000522
											CHANNELS 6 Xposition Yposition Zposition Xrotation Yrotation Zrotation
											JOINT mixamorig:RightHandIndex4
											{
												OFFSET -2.772186 -0.000015 -0.000020
												CHANNELS 6 Xposition Yposition Zposition Xrotation Yrotation Zrotation
												End Site
												{
													OFFSET -277.218445 0.000000 -0.050231
												}
											}
										}
									}
								}
								JOINT mixamorig:RightHandMiddle1
								{
									OFFSET -9.532516 -0.000031 -0.000023
									CHANNELS 6 Xposition Yposition Zposition Xrotation Yrotation Zrotation
									JOINT mixamorig:RightHandMiddle2
									{
										OFFSET -3.700005 -0.000015 0.003713
										CHANNELS 6 Xposition Yposition Zposition Xrotation Yrotation Zrotation
										JOINT mixamorig:RightHandMiddle3
										{
											OFFSET -2.949974 0.000015 -0.002054
											CHANNELS 6 Xposition Yposition Zposition Xrotation Yrotation Zrotation
											JOINT mixamorig:RightHandMiddle4
											{
												OFFSET -2.946640 0.000000 -0.000156
												CHANNELS 6 Xposition Yposition Zposition Xrotation Yrotation Zrotation
												End Site
												{
													OFFSET -294.664337 0.000000 -0.113670
												}
											}
										}
									}
								}
								JOINT mixamorig:RightHandRing1
								{
									OFFSET -9.103600 -0.043076 -1.865134
									CHANNELS 6 Xposition Yposition Zposition Xrotation Yrotation Zrotation
									JOINT mixamorig:RightHandRing2
									{
										OFFSET -3.379288 0.000000 -0.001055
										CHANNELS 6 Xposition Yposition Zposition Xrotation Yrotation Zrotation
										JOINT mixamorig:RightHandRing3
										{
											OFFSET -2.889687 -0.000015 0.000379
											CHANNELS 6 Xposition Yposition Zposition Xrotation Yrotation Zrotation
											JOINT mixamorig:RightHandRing4
											{
												OFFSET -2.638809 -0.000015 0.000941
												CHANNELS 6 Xposition Yposition Zposition Xrotation Yrotation Zrotation
												End Site
												{
													OFFSET -263.880371 0.000000 0.516020
												}
											}
										}
									}
								}
								JOINT mixamorig:RightHandPinky1
								{
									OFFSET -8.076683 -0.486710 -3.806280
									CHANNELS 6 Xposition Yposition Zposition Xrotation Yrotation Zrotation
									JOINT mixamorig:RightHandPinky2
									{
										OFFSET -3.600014 -0.000015 -0.003747
										CHANNELS 6 Xposition Yposition Zposition Xrotation Yrotation Zrotation
										JOINT mixamorig:RightHandPinky3
										{
											OFFSET -2.099983 0.000000 -0.005739
											CHANNELS 6 Xposition Yposition Zposition Xrotation Yrotation Zrotation
											JOINT mixamorig:RightHandPinky4
											{
												OFFSET -2.115768 -0.000031 -0.003680
												CHANNELS 6 Xposition Yposition Zposition Xrotation Yrotation Zrotation
												End Site
												{
													OFFSET -211.577087 0.000000 -0.350686
												}
											}
										}
									}
								}
							}
						}
					}
				}
				JOINT mixamorig:LeftShoulder
				{
					OFFSET 4.570447 11.014725 -2.160855
					CHANNELS 6 Xposition Yposition Zposition Xrotation Yrotation Zrotation
					JOINT mixamorig:LeftArm
					{
						OFFSET 10.592371 -0.524597 -2.232119
						CHANNELS 6 Xposition Yposition Zposition Xrotation Yrotation Zrotation
						JOINT mixamorig:LeftForeArm
						{
							OFFSET 27.841532 -0.000031 0.000026
							CHANNELS 6 Xposition Yposition Zposition Xrotation Yrotation Zrotation
							JOINT mixamorig:LeftHand
							{
								OFFSET 28.328846 -0.000061 0.000022
								CHANNELS 6 Xposition Yposition Zposition Xrotation Yrotation Zrotation
								JOINT mixamorig:LeftHandThumb1
								{
									OFFSET 2.466141 -1.576172 2.681732
									CHANNELS 6 Xposition Yposition Zposition Xrotation Yrotation Zrotation
									JOINT mixamorig:LeftHandThumb2
									{
										OFFSET 3.217812 -1.872070 1.916482
										CHANNELS 6 Xposition Yposition Zposition Xrotation Yrotation Zrotation
										JOINT mixamorig:LeftHandThumb3
										{
											OFFSET 2.656029 -1.528778 1.514513
											CHANNELS 6 Xposition Yposition Zposition Xrotation Yrotation Zrotation
											JOINT mixamorig:LeftHandThumb4
											{
												OFFSET 2.020889 -1.154053 1.115139
												CHANNELS 6 Xposition Yposition Zposition Xrotation Yrotation Zrotation
												End Site
												{
													OFFSET 190.885437 -115.081749 130.048782
												}
											}
										}
									}
								}
								JOINT mixamorig:LeftHandIndex1
								{
									OFFSET 9.109314 -0.518021 2.259871
									CHANNELS 6 Xposition Yposition Zposition Xrotation Yrotation Zrotation
									JOINT mixamorig:LeftHandIndex2
									{
										OFFSET 3.699989 0.000000 -0.000322
										CHANNELS 6 Xposition Yposition Zposition Xrotation Yrotation Zrotation
										JOINT mixamorig:LeftHandIndex3
										{
											OFFSET 2.850006 0.000000 0.000352
											CHANNELS 6 Xposition Yposition Zposition Xrotation Yrotation Zrotation
											JOINT mixamorig:LeftHandIndex4
											{
												OFFSET 2.774864 -0.000031 -0.000027
												CHANNELS 6 Xposition Yposition Zposition Xrotation Yrotation Zrotation
												End Site
												{
													OFFSET 277.486267 0.000000 -0.009857
												}
											}
										}
									}
								}
								JOINT mixamorig:LeftHandMiddle1
								{
									OFFSET 9.533394 0.000061 0.000044
									CHANNELS 6 Xposition Yposition Zposition Xrotation Yrotation Zrotation
									JOINT mixamorig:LeftHandMiddle2
									{
										OFFSET 3.699989 -0.000015 -0.000231
										CHANNELS 6 Xposition Yposition Zposition Xrotation Yrotation Zrotation
										JOINT mixamorig:LeftHandMiddle3
										{
											OFFSET 2.949997 -0.000015 -0.000059
											CHANNELS 6 Xposition Yposition Zposition Xrotation Yrotation Zrotation
											JOINT mixamorig:LeftHandMiddle4
											{
												OFFSET 2.952896 0.000031 0.000063
												CHANNELS 6 Xposition Yposition Zposition Xrotation Yrotation Zrotation
												End Site
												{
													OFFSET 295.289337 0.000000 0.022810
												}
											}
										}
									}
								}
								JOINT mixamorig:LeftHandRing1
								{
									OFFSET 9.104523 -0.042999 -1.865074
									CHANNELS 6 Xposition Yposition Zposition Xrotation Yrotation Zrotation
									JOINT mixamorig:LeftHandRing2
									{
										OFFSET 3.150009 -0.000031 0.000043
										CHANNELS 6 Xposition Yposition Zposition Xrotation Yrotation Zrotation
										JOINT mixamorig:LeftHandRing3
										{
											OFFSET 2.949982 -0.000015 0.000040
											CHANNELS 6 Xposition Yposition Zposition Xrotation Yrotation Zrotation
											JOINT mixamorig:LeftHandRing4
											{
												OFFSET 2.644348 0.000000 0.000057
												CHANNELS 6 Xposition Yposition Zposition Xrotation Yrotation Zrotation
												End Site
												{
													OFFSET 264.434631 0.000000 0.012105
												}
											}
										}
									}
								}
								JOINT mixamorig:LeftHandPinky1
								{
									OFFSET 8.077789 -0.486847 -3.806259
									CHANNELS 6 Xposition Yposition Zposition Xrotation Yrotation Zrotation
									JOINT mixamorig:LeftHandPinky2
									{
										OFFSET 3.599953 0.000031 0.014727
										CHANNELS 6 Xposition Yposition Zposition Xrotation Yrotation Zrotation
										JOINT mixamorig:LeftHandPinky3
										{
											OFFSET 2.100021 0.000015 0.007705
											CHANNELS 6 Xposition Yposition Zposition Xrotation Yrotation Zrotation
											JOINT mixamorig:LeftHandPinky4
											{
												OFFSET 2.125504 0.000031 0.007517
												CHANNELS 6 Xposition Yposition Zposition Xrotation Yrotation Zrotation
												End Site
												{
													OFFSET 212.550781 0.000000 0.625752
												}
											}
										}
									}
								}
							}
						}
					}
				}
			}
		}
	}
	JOINT mixamorig:RightUpLeg
	{
		OFFSET -8.207787 -6.751648 -1.599560
		CHANNELS 6 Xposition Yposition Zposition Xrotation Yrotation Zrotation
		JOINT mixamorig:RightLeg
		{
			OFFSET -0.000002 -44.370117 0.345942
			CHANNELS 6 Xposition Yposition Zposition Xrotation Yrotation Zrotation
			JOINT mixamorig:RightFoot
			{
				OFFSET 0.000003 -44.423679 -3.043532
				CHANNELS 6 Xposition Yposition Zposition Xrotation Yrotation Zrotation
				JOINT mixamorig:RightToeBase
				{
					OFFSET -0.000002 -8.728671 10.710558
					CHANNELS 6 Xposition Yposition Zposition Xrotation Yrotation Zrotation
					JOINT mixamorig:RightToe_End
					{
						OFFSET -0.000001 -0.000679 9.278119
						CHANNELS 6 Xposition Yposition Zposition Xrotation Yrotation Zrotation
						End Site
						{
							OFFSET 0.000000 -0.067690 927.812134
						}
					}
				}
			}
		}
	}
	JOINT mixamorig:LeftUpLeg
	{
		OFFSET 8.207793 -6.751686 -1.599556
		CHANNELS 6 Xposition Yposition Zposition Xrotation Yrotation Zrotation
		JOINT mixamorig:LeftLeg
		{
			OFFSET -0.000004 -44.370014 0.346954
			CHANNELS 6 Xposition Yposition Zposition Xrotation Yrotation Zrotation
			JOINT mixamorig:LeftFoot
			{
				OFFSET -0.000001 -44.423672 -3.044401
				CHANNELS 6 Xposition Yposition Zposition Xrotation Yrotation Zrotation
				JOINT mixamorig:LeftToeBase
				{
					OFFSET -0.000002 -8.728669 10.710558
					CHANNELS 6 Xposition Yposition Zposition Xrotation Yrotation Zrotation
					JOINT mixamorig:LeftToe_End
					{
						OFFSET -0.000003 -0.000679 9.278133
						CHANNELS 6 Xposition Yposition Zposition Xrotation Yrotation Zrotation
						End Site
						{
							OFFSET 0.000000 -0.068021 927.813477
						}
					}
				}
			}
		}
	}
}
MOTION
Frames: 3
Frame Time: 0.033333
0.000006 104.270477 1.554256 0.000010 0.000003 -0.000113 -0.000005 10.181587 0.131522 0.000001 -0.000003 0.000084 -0.000000 9.893967 -1.470711 0.000001 0.000000 -0.000000 -0.000000 9.220802 -1.370642 0.000000 -0.000000 -0.000000 0.000001 16.740433 -2.049030 0.000000 -0.000000 -0.000000 0.000000 9.617859 1.685014 0.000000 0.000000 0.000000 0.000002 22.037384 7.501101 0.000000 -0.000000 0.000000 -4.569968 11.014880 -2.160881 0.000008 0.000001 -0.000038 -10.592773 -0.524845 -2.231739 72.064691 68.739919 -52.901161 -27.841490 0.000023 0.000574 53.538148 105.639831 -67.254161 -28.328829 0.000005 0.000018 -0.000324 -0.000044 0.000007 -2.464362 -1.574094 2.682135 8.221948 -103.582148 51.191219 -3.214884 -1.873048 1.924520 255.168245 -50.284283 307.594291 -2.654647 -1.528287 1.512990 240.229119 -35.160376 303.191797 -2.018826 -1.152004 1.108060 -0.000001 0.000003 0.000002 -9.108146 -0.517689 2.260435 194.604343 12.385919 -279.462080 -3.700085 0.000275 0.001545 98.105784 20.835016 -23.897869 -2.850090 0.000278 -0.000451 50.453921 10.734400 -5.068474 -2.772157 -0.000000 -0.000022 -0.000000 -0.000002 0.000001 -9.532251 0.000120 0.000562 184.137433 6.628804 -244.437990 -3.700038 0.000362 0.003932 89.722451 3.824494 -3.721581 -2.949992 0.000201 -0.002034 38.470965 2.284362 -0.794946 -2.946642 -0.000011 -0.000151 0.000001 -0.000001 0.000004 -9.103363 -0.043110 -1.864559 178.869062 3.864267 -146.116598 -3.379211 0.000360 -0.000900 446.393270 -12.460893 11.694881 -2.889658 0.000217 0.000344 39.817004 -10.681573 3.867888 -2.638810 0.000016 0.000940 -0.000001 0.000002 0.000000 -8.076578 -0.486426 -3.805732 170.319305 -3.475195 40.221516 -3.599831 0.000313 -0.003616 440.791449 -22.393235 19.266719 -2.099875 0.000194 -0.005797 34.628123 -16.762705 5.288426 -2.115775 -0.000055 -0.003715 0.000000 -0.000000 -0.000003 4.570446 11.014691 -2.160851 -0.000018 0.000010 -0.000021 10.592523 -0.524553 -2.232379 59.778116 -68.941006 43.067894 27.841740 -0.000058 -0.000121 264.298596 -80.604387 273.724612 28.328842 -0.000014 0.000021 0.000020 -0.000089 -0.000001 2.466157 -1.576167 2.681859 75.178458 130.790090 -129.335451 3.217863 -1.871976 1.916537 292.355510 26.597568 22.551545 2.656059 -1.528751 1.514629 126.351874 173.937830 194.962491 2.020872 -1.154068 1.115151 -0.000002 0.000007 0.000004 9.109105 -0.517839 2.260077 223.116749 -34.332841 -76.041999 3.700112 0.000168 -0.000369 133.504872 -22.984857 50.695522 2.850064 0.000253 0.000237 110.618923 -15.216770 21.843234 2.774894 -0.000021 -0.000025 -0.000001 0.000002 0.000003 9.533157 0.000089 0.000153 186.681815 -22.245986 213.049706 3.700054 0.000300 -0.000331 123.383215 -6.834605 12.647488 2.950025 0.000195 -0.000240 88.555848 1.064013 -1.035175 2.952873 -0.000015 0.000061 0.000001 0.000004 0.000000 9.104338 -0.043004 -1.864985 184.395068 -18.253336 206.874545 3.149922 0.000339 -0.000129 117.027382 12.753719 -20.680430 2.949871 0.000189 -0.000198 77.302735 27.742833 -22.343458 2.644323 0.000029 0.000055 0.000000 -0.000002 0.000001 8.077505 -0.486672 -3.806159 187.512148 -9.758816 255.901479 3.599806 0.000355 0.014558 118.968467 18.465661 -30.431355 2.099906 0.000174 0.007503 67.730744 34.234424 -23.291807 2.125498 -0.000033 0.007511 -0.000001 0.000001 -0.000001 -8.207786 -6.751667 -1.599560 -0.077001 -0.000003 0.000080 -0.000002 -44.370110 0.345938 0.153719 -0.000000 -0.000000 0.000000 -44.423679 -3.043532 -0.076700 0.000000 -0.000002 -0.000006 -8.728667 10.710559 -0.000009 -0.000000 -0.000000 -0.000001 -0.000679 9.278123 0.000000 -0.000000 -0.000000 8.207792 -6.751710 -1.599556 -0.074518 -0.000003 0.000081 -0.000002 -44.370014 0.346960 0.148822 0.000002 0.000000 -0.000001 -44.423664 -3.044403 -0.074314 0.000000 -0.000002 -0.000004 -8.728671 10.710558 0.000007 -0.000000 -0.000000 0.000000 -0.000680 9.278137 -0.000000 0.000000 -0.000001 
0.000006 104.270477 1.554256 0.000010 0.000003 -0.000113 -0.000005 10.181587 0.131522 0.000001 -0.000003 0.000084 -0.000000 9.893967 -1.470711 0.000001 0.000000 -0.000000 -0.000000 9.220802 -1.370642 0.000000 -0.000000 -0.000000 0.000001 16.740433 -2.049030 0.000000 -0.000000 -0.000000 0.000000 9.617859 1.685014 0.000000 0.000000 0.000000 0.000002 22.037384 7.501101 0.000000 -0.000000 0.000000 -4.569968 11.014880 -2.160881 0.000008 0.000001 -0.000038 -10.592779 -0.524844 -2.231738 70.929056 68.406687 -51.670675 -27.841509 0.000018 0.000586 54.621542 104.471063 -67.371798 -28.328821 0.000006 0.000014 -0.000322 -0.000043 0.000007 -2.464370 -1.574080 2.682154 8.890086 -105.439433 52.934140 -3.214880 -1.873044 1.924556 253.398652 -48.715255 306.978016 -2.654637 -1.528263 1.513002 236.460548 -34.077760 301.065504 -2.018841 -1.151997 1.108063 -0.000001 -0.000002 -0.000001 -9.108111 -0.517684 2.260421 190.870579 11.947942 -264.579207 -3.700102 0.000288 0.001523 93.563251 19.257747 -20.442300 -2.850093 0.000257 -0.000444 48.281921 11.135690 -5.002936 -2.772171 0.000009 -0.000022 -0.000002 0.000001 -0.000000 -9.532270 0.000133 0.000536 184.636979 5.996309 -255.719714 -3.700012 0.000360 0.003913 89.065086 2.274329 -2.156053 -2.950004 0.000189 -0.002038 39.571377 2.015551 -0.722855 -2.946626 -0.000015 -0.000154 -0.000001 0.000000 0.000001 -9.103275 -0.042990 -1.864578 180.475359 2.766986 -198.284271 -3.379185 0.000360 -0.000917 445.569740 -14.604915 13.517648 -2.889655 0.000218 0.000369 38.743743 -11.192403 3.936570 -2.638801 -0.000010 0.000941 -0.000000 0.000000 -0.000000 -8.076517 -0.486409 -3.805749 173.232080 -4.213843 64.331639 -3.599817 0.000326 -0.003643 440.256181 -23.430972 19.966875 -2.099908 0.000168 -0.005780 32.225676 -16.249350 4.749126 -2.115776 -0.000056 -0.003669 -0.000000 0.000004 -0.000003 4.570446 11.014691 -2.160851 -0.000018 0.000010 -0.000021 10.592518 -0.524550 -2.232377 55.890680 -69.312473 40.278817 27.841732 -0.000044 -0.000121 275.868827 -80.958485 284.791376 28.328823 -0.000028 0.000012 0.000019 -0.000088 0.000000 2.466187 -1.576139 2.681902 83.284048 143.096001 -139.728376 3.217842 -1.871979 1.916560 298.206879 22.398022 19.284008 2.656037 -1.528749 1.514640 133.642323 178.589530 192.655731 2.020888 -1.154063 1.115147 0.000005 0.000004 0.000001 9.109204 -0.517901 2.260111 263.299640 -37.180258 -41.428403 3.700132 0.000176 -0.000357 141.547802 -21.915618 58.124862 2.850064 0.000310 0.000246 120.494837 -8.945397 15.582424 2.774884 -0.000016 -0.000022 0.000001 -0.000002 0.000001 9.533205 0.000071 0.000181 189.744909 -37.823392 207.929373 3.700047 0.000306 -0.000354 125.226368 -4.781554 9.210456 2.949974 0.000165 -0.000258 78.562967 15.205020 -12.459699 2.952861 -0.000035 0.000068 -0.000002 -0.000005 -0.000001 9.104434 -0.043068 -1.864998 178.311131 -30.727874 173.864733 3.149925 0.000372 -0.000104 122.174053 11.314246 -20.333354 2.949840 0.000147 -0.000202 64.796864 42.296728 -27.584516 2.644319 0.000030 0.000053 -0.000002 -0.000002 -0.000000 8.077586 -0.486861 -3.806164 183.113246 -17.493127 202.406113 3.599839 0.000382 0.014568 121.343624 15.211646 -26.258693 2.099902 0.000113 0.007511 55.006300 37.703529 -20.149418 2.125530 0.000000 0.007521 0.000003 0.000004 0.000001 -8.207786 -6.751667 -1.599560 -0.077001 -0.000003 0.000080 -0.000002 -44.370110 0.345938 0.153719 -0.000000 -0.000000 0.000000 -44.423679 -3.043532 -0.076700 0.000000 -0.000002 -0.000006 -8.728667 10.710559 -0.000009 -0.000000 -0.000000 -0.000001 -0.000679 9.278123 0.000000 -0.000000 -0.000000 8.207792 -6.751710 -1.599556 -0.074518 -0.000003 0.000081 -0.000002 -44.370014 0.346960 0.148822 0.000002 0.000000 -0.000001 -44.423664 -3.044403 -0.074314 0.000000 -0.000002 -0.000004 -8.728671 10.710558 0.000007 -0.000000 -0.000000 0.000000 -0.000680 9.278137 -0.000000 0.000000 -0.000001 
0.000006 104.270477 1.554256 0.000010 0.000003 -0.000113 -0.000005 10.181587 0.131522 0.000001 -0.000003 0.000084 -0.000000 9.893967 -1.470711 0.000001 0.000000 -0.000000 -0.000000 9.220802 -1.370642 0.000000 -0.000000 -0.000000 0.000001 16.740433 -2.049030 0.000000 -0.000000 -0.000000 0.000000 9.617859 1.685014 0.000000 0.000000 0.000000 0.000002 22.037384 7.501101 0.000000 -0.000000 0.000000 -4.569968 11.014880 -2.160881 0.000008 0.000001 -0.000038 -10.592784 -0.524841 -2.231744 70.292359 67.283292 -50.204827 -27.841496 0.000016 0.000573 54.958113 105.260489 -68.510561 -28.328827 0.000021 0.000027 -0.000325 -0.000044 0.000006 -2.464399 -1.574100 2.682105 62.704996 -102.488163 105.323525 -3.214865 -1.873046 1.924525 253.851221 -50.118501 306.676450 -2.654620 -1.528265 1.513011 233.302350 -35.191781 297.989843 -2.018807 -1.152016 1.108070 0.000002 -0.000005 0.000000 -9.108104 -0.517695 2.260412 190.317156 12.151356 -260.641248 -3.700108 0.000279 0.001519 92.126008 20.661461 -21.398668 -2.850069 0.000233 -0.000469 46.160314 10.074369 -4.301611 -2.772151 0.000000 -0.000022 0.000000 -0.000001 0.000001 -9.532207 0.000045 0.000538 181.491022 5.747645 -210.618240 -3.700024 0.000356 0.003898 82.937307 1.939486 -1.641240 -2.950010 0.000178 -0.002047 34.159569 1.071252 -0.327255 -2.946621 -0.000027 -0.000154 -0.000001 -0.000001 0.000002 -9.103631 -0.042983 -1.864591 174.418552 2.028739 -39.045149 -3.379146 0.000357 -0.000954 436.153095 -15.850829 12.440700 -2.889655 0.000194 0.000336 32.021300 -11.550840 3.317676 -2.638825 -0.000015 0.000945 -0.000000 -0.000001 -0.000003 -8.076532 -0.486394 -3.805768 168.040412 -6.139349 54.662110 -3.599839 0.000278 -0.003699 429.540843 -25.489002 17.946447 -2.099887 0.000145 -0.005799 24.376248 -17.309265 3.776629 -2.115774 -0.000041 -0.003653 -0.000001 -0.000000 -0.000004 4.570446 11.014691 -2.160851 -0.000018 0.000010 -0.000021 10.592509 -0.524555 -2.232373 54.612495 -68.166046 38.511021 27.841728 -0.000046 -0.000126 284.708021 -81.196674 293.061397 28.328842 -0.000028 0.000022 0.000019 -0.000090 -0.000001 2.466168 -1.576115 2.681881 83.230117 143.350726 -139.789548 3.217840 -1.871968 1.916572 300.026004 20.311142 18.271270 2.656064 -1.528761 1.514629 133.018071 177.854219 192.837195 2.020887 -1.154071 1.115147 -0.000002 0.000002 0.000004 9.109261 -0.517950 2.260083 294.839377 -30.912241 -20.038983 3.700126 0.000159 -0.000345 134.877672 -23.066507 52.358106 2.850056 0.000314 0.000251 123.986798 -5.948060 11.155934 2.774877 -0.000047 -0.000024 0.000001 0.000004 0.000001 9.533340 0.000037 0.000117 168.353003 -46.363129 153.187414 3.700030 0.000294 -0.000330 129.797035 -3.591749 7.652983 2.949959 0.000304 -0.000216 115.902409 10.121223 -16.098966 2.952861 -0.000018 0.000064 -0.000001 -0.000000 0.000002 9.104624 -0.042971 -1.865047 160.796505 -30.691626 116.703877 3.149894 0.000409 -0.000074 132.500096 10.607997 -23.825718 2.949736 0.000269 -0.000173 112.940265 41.424486 -59.419839 2.644319 0.000047 0.000060 0.000002 -0.000001 -0.000000 8.077821 -0.486869 -3.806205 173.301584 -14.134101 133.937619 3.599796 0.000409 0.014623 140.728412 15.229746 -40.493057 2.099765 0.000216 0.007532 114.953259 46.337438 -67.791007 2.125503 -0.000015 0.007507 -0.000000 0.000004 0.000000 -8.207786 -6.751667 -1.599560 -0.077001 -0.000003 0.000080 -0.000002 -44.370110 0.345938 0.153719 -0.000000 -0.000000 0.000000 -44.423679 -3.043532 -0.076700 0.000000 -0.000002 -0.000006 -8.728667 10.710559 -0.000009 -0.000000 -0.000000 -0.000001 -0.000679 9.278123 0.000000 -0.000000 -0.000000 8.207792 -6.751710 -1.599556 -0.074518 -0.000003 0.000081 -0.000002 -44.370014 0.346960 0.148822 0.000002 0.000000 -0.000001 -44.423664 -3.044403 -0.074314 0.000000 -0.000002 -0.000004 -8.728671 10.710558 0.000007 -0.000000 -0.000000 0.000000 -0.000680 9.278137 -0.000000 0.000000 -0.000001 
